<?xml version="1.0" encoding="UTF-8"?>
<svg width="512px" height="512px" viewBox="0 0 512 512" version="1.1" xmlns="http://www.w3.org/2000/svg" xmlns:xlink="http://www.w3.org/1999/xlink">
    <!-- Generator: Sketch 41.2 (35397) - http://www.bohemiancoding.com/sketch -->
    <title>hollo-logo-v2</title>
    <desc>Created with Sketch.</desc>
    <defs>
        <path d="M256,512 C397.384896,512 512,397.384896 512,256 C512,114.615104 397.384896,0 256,0 C114.615104,0 0,114.615104 0,256 C0,397.384896 114.615104,512 256,512 Z" id="path-1"></path>
    </defs>
    <g id="Graphics-for-store-and-share" stroke="none" stroke-width="1" fill="none" fill-rule="evenodd">
        <g id="hollo-logo-v2">
            <g id="Group">
                <mask id="mask-2" fill="white">
                    <use xlink:href="#path-1"></use>
                </mask>
                <use id="Mask" fill="#7A4DF9" xlink:href="#path-1"></use>
                <path d="M328.185943,359.421963 C333.633977,358.499891 337.23173,353.351811 336.221973,347.924611 L271.149038,-1.82692308 L311.524038,-8.92307692 L376.936535,361.542172 C379.816649,377.853765 368.924913,393.440453 352.619293,396.354205 L248.152183,415.022077 C242.715221,415.993642 238.307692,421.262329 238.307692,426.772409 L238.307692,516.923077 L190.324519,516.923077 L190.324519,412.76038 C190.324519,396.18876 203.56422,380.514008 219.908326,377.747791 L328.185943,359.421963 Z" id="Rectangle" fill="#FFFFFF" mask="url(#mask-2)"></path>
                <path d="M452.923077,172.859781 C452.923077,130.554898 420.364554,98.7532963 378.794297,98.7532963 C337.22404,98.7532963 304.665517,130.554898 304.665517,172.859781 C304.665517,215.164663 337.22404,246.966265 378.794297,246.966265 C420.364554,246.966265 452.923077,215.164663 452.923077,172.859781 Z M344.200866,172.859781 C344.200866,151.269703 357.863818,135.223023 378.794297,135.223023 C399.434075,135.223023 413.097027,151.269703 413.097027,172.859781 C413.097027,194.741617 399.434075,210.788296 378.794297,210.788296 C358.44522,210.788296 344.200866,194.741617 344.200866,172.859781 Z M245.297893,172.568023 C245.297893,130.26314 212.73937,98.4615385 171.169113,98.4615385 C129.598856,98.4615385 97.0403331,130.26314 97.0403331,172.568023 C97.0403331,214.872906 129.598856,246.674507 171.169113,246.674507 C212.73937,246.674507 245.297893,214.872906 245.297893,172.568023 Z M136.575682,172.568023 C136.575682,150.977945 150.238634,134.931265 171.169113,134.931265 C191.808891,134.931265 205.471843,150.977945 205.471843,172.568023 C205.471843,194.449859 191.808891,210.496538 171.169113,210.496538 C150.820036,210.496538 136.575682,194.449859 136.575682,172.568023 Z" id="Combined-Shape" fill="#FFFFFF" mask="url(#mask-2)"></path>
            </g>
        </g>
    </g>
</svg>